PathFileType	4	(X/Y/Z)	D:\TRACE\spotREDO_2-26-24\spot_justArm_Motion_1_5-v60.trc
DataRate	CameraRate	NumFrames	NumMarkers	Units	OrigDataRate	OrigDataStartFrame	OrigNumFrames
100.00	100.00	      32	9	mm	100.00	1	      7000
Frame#	Time	front left toe			Front right toe			aft left toe			aft right toe			Arm			FL body			FR body			AL Body			AR Body			
		X1	Y1	Z1	X2	Y2	Z2	X3	Y3	Z3	X4	Y4	Z4	X5	Y5	Z5	X6	Y6	Z6	X7	Y7	Z7	X8	Y8	Z8	X9	Y9	Z9	

1	0.000	-230.46573	19.32924	-161.76512	198.60039	20.30063	-140.30009	-251.72328	19.78192	459.70865	166.20494	24.46470	417.56824	4.58194	863.83563	-343.20551	-88.40112	545.14441	-272.92096	67.20985	550.28796	-268.69815	-122.55924	558.26471	610.47638	25.14368	558.85077	616.79498	
2	0.010	-230.45937	19.32292	-161.76764	198.57971	20.60226	-140.34184	-251.68118	19.82433	459.71399	166.39072	24.55512	417.58569	4.64046	864.49738	-343.38348	-88.44775	545.17548	-272.91681	67.20903	550.29797	-268.69003	-122.62422	558.28040	610.42889	25.09189	558.87781	616.74359	
3	0.020	-230.45015	19.26895	-161.75966	198.58797	20.62127	-140.33127	-251.69099	19.78785	459.75128	166.24905	24.47685	417.57495	4.65768	865.13049	-343.59680	-88.54677	545.25635	-272.94562	67.14079	550.28906	-268.64426	-122.94090	558.36554	610.13190	25.01346	558.89667	616.72705	
4	0.030	-230.45193	19.26868	-161.75807	198.53763	20.61010	-140.40594	-251.67369	19.79593	459.71582	166.26613	24.50202	417.54791	5.00276	865.85211	-343.93671	-88.57114	545.19598	-272.95221	67.06261	550.28998	-268.63367	-122.72929	558.32642	610.38702	25.03531	558.93726	616.71838	
5	0.040	-230.49113	19.34707	-161.72986	198.56119	20.67833	-140.38092	-251.66075	19.80902	459.73331	166.29160	24.51578	417.56082	5.10107	866.49652	-344.44348	-88.63820	545.18274	-272.98184	67.08717	550.35791	-268.67950	-122.81720	558.41693	610.38348	25.03592	558.98468	616.72772	
6	0.050	-230.49609	19.36258	-161.74843	198.52768	20.58303	-140.44319	-251.69724	19.82533	459.77707	166.19489	24.46794	417.52856	5.03574	866.98212	-344.74316	-88.71577	545.18274	-272.96393	66.97598	550.27686	-268.63995	-123.08131	558.54987	610.12714	25.02981	559.02148	616.71075	
7	0.060	-230.48981	19.30565	-161.74379	198.58260	20.66795	-140.37212	-251.69189	19.77072	459.75610	166.27515	24.50151	417.54147	4.99980	867.70105	-345.15952	-88.78420	545.12170	-272.92633	66.92413	550.26733	-268.63806	-122.88990	558.44598	610.40558	24.94650	559.02625	616.72162	
8	0.070	-230.47073	19.23979	-161.73827	198.63458	20.41788	-140.27591	-251.69739	19.76946	459.73553	166.35957	24.52577	417.57458	5.01487	868.20477	-345.42581	-88.81616	545.10828	-272.97800	66.90008	550.28815	-268.63187	-122.88521	558.38953	610.41797	24.91228	559.03027	616.69299	
9	0.080	-230.50580	19.26747	-161.73415	198.60678	20.36994	-140.32280	-251.69159	19.72424	459.73639	166.12027	24.46925	417.51181	5.03912	868.71100	-345.66541	-88.86842	545.12958	-272.93033	66.80737	550.30652	-268.63852	-122.92270	558.41125	610.42853	24.83971	559.02911	616.68402	
10	0.090	-230.55722	19.29263	-161.70964	198.55188	20.60547	-140.42252	-251.69691	19.79842	459.76556	166.34282	24.54704	417.54324	4.88633	869.38806	-346.10925	-88.98151	545.18304	-272.96915	66.78014	550.30389	-268.64926	-123.12501	558.51599	610.16254	24.86724	559.04279	616.67780	
11	0.100	-230.54968	19.26451	-161.71361	198.54736	20.66138	-140.35699	-251.68375	19.77095	459.78580	166.31787	24.52690	417.55447	5.02685	869.87646	-346.37070	-88.94740	545.18512	-272.97742	66.72049	550.31403	-268.64026	-122.94476	558.44263	610.43988	24.79863	559.03564	616.68878	
12	0.110	-230.55046	19.23211	-161.72952	198.54297	20.67576	-140.38344	-251.70372	19.75797	459.81775	166.15135	24.48911	417.49155	5.05922	870.63104	-346.81653	-89.03233	545.17212	-272.96716	66.72980	550.30261	-268.62506	-123.00739	558.44086	610.42218	24.55324	559.05219	616.66779	
13	0.120	-230.57353	19.22933	-161.72289	198.46744	20.64661	-140.46556	-251.72290	19.81382	459.77457	166.18246	24.48608	417.50928	4.85491	871.27313	-347.24551	-89.07236	545.20953	-272.93958	66.67381	550.29993	-268.59290	-123.24303	558.50934	610.14276	24.32714	559.07336	616.65021	
14	0.130	-230.57433	19.25529	-161.74266	198.54182	20.66940	-140.36612	-251.70900	19.75047	459.75912	166.22066	24.49622	417.49976	4.59348	871.75867	-347.60324	-89.07317	545.18610	-272.93512	66.64979	550.34497	-268.61716	-123.01247	558.42627	610.43085	24.37921	559.03528	616.68896	
15	0.140	-230.52713	19.24128	-161.71814	198.54388	20.60799	-140.43756	-251.68941	19.74728	459.76367	166.13374	24.47151	417.50677	4.93631	872.44379	-347.80209	-89.08170	545.20343	-272.95917	66.61163	550.37793	-268.61224	-123.03657	558.39844	610.42670	23.79195	559.10114	616.62817	
16	0.150	-230.53459	19.27143	-161.72400	198.54526	20.62988	-140.41147	-251.71576	19.76771	459.76941	166.36699	24.55435	417.54291	5.12184	873.02905	-348.06415	-89.12239	545.25385	-272.91394	66.61167	550.41980	-268.60611	-123.20992	558.49139	610.16882	23.79941	559.15735	616.63391	
17	0.160	-230.57898	19.27457	-161.73334	198.64140	20.62141	-140.39499	-251.70062	19.73595	459.78644	166.39586	24.54637	417.55777	5.09303	873.51257	-348.51144	-89.16952	545.30872	-272.91818	66.58593	550.41852	-268.59738	-122.75979	558.41205	610.37518	23.33419	559.23578	616.59631	
18	0.170	-230.50705	19.21315	-161.67722	198.55714	20.66323	-140.38806	-251.67708	19.78728	459.75037	166.34125	24.53459	417.56641	4.92395	874.26489	-348.95712	-89.15337	545.28009	-272.91046	66.59732	550.43378	-268.59131	-123.05175	558.43890	610.43463	24.61041	558.98645	616.68573	
19	0.180	-230.50223	19.24789	-161.69092	198.55399	20.60516	-140.40651	-251.72252	19.73823	459.76834	166.33195	24.53462	417.52640	4.89057	874.95160	-349.50574	-89.19205	545.25818	-272.94455	66.59259	550.42841	-268.61191	-123.06957	558.43939	610.40820	24.60514	558.97589	616.67200	
20	0.190	-230.51355	19.20116	-161.71860	198.52260	20.60946	-140.36896	-251.67007	19.76959	459.77371	166.26660	24.52282	417.52536	4.95065	875.36499	-349.65027	-89.18283	545.22498	-272.96823	66.58859	550.42157	-268.61139	-123.34551	558.53589	610.13239	24.48629	558.99384	616.67554	
21	0.200	-230.52492	19.20940	-161.71581	198.48128	20.58459	-140.43924	-251.74504	19.77277	459.73749	166.14331	24.47067	417.49283	4.96892	876.02496	-349.97195	-89.17200	545.23572	-272.98795	66.59284	550.42578	-268.63348	-123.16557	558.49768	610.36127	24.55489	559.00641	616.65332	
22	0.210	-230.55270	19.22490	-161.73325	198.54834	20.63341	-140.35988	-251.69572	19.75655	459.77628	166.11420	24.48140	417.48691	5.04291	876.77618	-350.38602	-89.18832	545.28687	-272.98196	66.54561	550.40430	-268.63385	-123.18521	558.51764	610.34290	24.62252	559.03253	616.63696	
23	0.220	-230.55299	19.24634	-161.70163	198.56743	20.64681	-140.39853	-251.69070	19.79587	459.78455	166.26410	24.52398	417.51364	5.01366	877.28711	-350.81345	-89.19128	545.22418	-272.95044	66.55996	550.38818	-268.66058	-123.34606	558.60779	610.07111	24.54627	559.03174	616.61169	
24	0.230	-230.53625	19.21034	-161.74139	198.49687	20.61914	-140.46671	-251.72775	19.73754	459.79385	166.26639	24.50351	417.53827	4.94742	877.86523	-351.19098	-89.21180	545.19336	-273.00510	66.55045	550.38318	-268.68262	-123.16314	558.54236	610.29541	24.51745	559.04980	616.59918	
25	0.240	-230.53827	19.20143	-161.70773	198.56006	20.57961	-140.43701	-251.68155	19.75198	459.70517	166.36296	24.55808	417.56699	4.81298	878.68640	-351.62201	-89.18663	545.14752	-273.05771	66.55758	550.39105	-268.68378	-123.17438	558.53534	610.29230	24.58531	559.03174	616.59753	
26	0.250	-230.50319	19.16873	-161.70607	198.50955	20.60380	-140.42422	-251.68095	19.76072	459.74866	166.19864	24.53440	417.51184	4.85662	879.25232	-351.78821	-89.25957	545.22845	-272.99008	66.54816	550.39105	-268.69907	-123.40182	558.60797	610.01917	25.83528	558.91705	616.65076	
27	0.260	-230.58784	19.24386	-161.73857	198.55954	20.65140	-140.38966	-251.69759	19.78144	459.72836	166.15811	24.50423	417.49136	5.08637	879.75958	-352.08698	-89.19392	545.21722	-272.98163	66.55589	550.38812	-268.70361	-123.21838	558.55334	610.24170	25.62924	558.96338	616.60803	
28	0.270	-230.58199	19.28890	-161.77365	198.57350	20.69138	-140.45996	-251.67665	19.77804	459.71994	166.34344	24.54470	417.54794	5.18038	880.41241	-352.52557	-89.22995	545.22662	-273.01678	66.53802	550.41620	-268.72806	-123.16117	558.56262	610.23273	25.51985	559.04346	616.57129	
29	0.280	-230.55983	19.27033	-161.74895	198.48863	20.61051	-140.50374	-251.67487	19.77810	459.75467	166.15141	24.48579	417.48233	5.18045	880.90167	-352.78757	-89.26626	545.22455	-273.03748	66.54941	550.40002	-268.72241	-123.17901	558.59296	610.25415	25.35810	559.06830	616.54572	
30	0.290	-230.53488	19.21441	-161.70403	198.51791	20.59866	-140.44499	-251.66542	19.76375	459.72543	166.16078	24.48480	417.48471	4.83785	881.55133	-353.43961	-89.18803	545.16687	-273.05453	66.54861	550.38928	-268.73834	-123.43671	558.63904	609.96320	25.27438	559.06873	616.55750	
31	0.300	-230.52563	19.23961	-161.73073	198.52130	20.63439	-140.42943	-251.72945	19.73100	459.73645	166.14127	24.46826	417.50815	5.01215	882.04382	-353.65732	-89.21021	545.19983	-273.03799	66.55270	550.37958	-268.72839	-123.23331	558.58777	610.21210	25.06346	559.04535	616.55151	
32	0.310	-230.54327	19.21422	-161.70374	198.53571	20.64979	-140.40190	-251.68556	19.72643	459.78360	166.12331	24.47948	417.48065	5.10343	882.62604	-354.08441	-89.16846	545.19702	-273.05246	66.55634	550.38202	-268.73932	-123.22277	558.59503	610.21045	24.98307	559.09796	616.52448	
